<svg xmlns="http://www.w3.org/2000/svg" viewBox="0 0 64 64" role="img" aria-labelledby="title desc">
  <title id="title">Xiaoxilanhua site icon</title>
  <desc id="desc">A minimal face with a broccoli sprout for the Xiaoxilanhua quiz site.</desc>
  <rect width="64" height="64" rx="16" fill="#f6f8ef"/>
  <circle cx="32" cy="32" r="22" fill="#fffdf8" stroke="#1d1916" stroke-width="2.6"/>
  <path d="M17 28c9.8-4.8 20.2-4.8 30 0" fill="#1d1916"/>
  <circle cx="24.2" cy="31.1" r="2.2" fill="#1d1916"/>
  <circle cx="39.8" cy="31.1" r="2.2" fill="#1d1916"/>
  <path d="M32 35v8.1" stroke="#1d1916" stroke-width="2.2" stroke-linecap="round"/>
  <path d="M28.8 45.1c2.1-.8 4.3-.8 6.4 0" stroke="#1d1916" stroke-width="2.2" stroke-linecap="round"/>
  <path d="M27.1 18.6h9.8l1.8 7.2H25.3z" fill="#1d1916"/>
  <path d="M30.4 12.2h3.2l1.1 8.6h-5.4z" fill="#8dc765" stroke="#487033" stroke-width="2" stroke-linejoin="round"/>
  <circle cx="25.3" cy="12.7" r="5.2" fill="#4f8a3d"/>
  <circle cx="32" cy="9.7" r="5.8" fill="#79b94d"/>
  <circle cx="38.7" cy="12.7" r="5" fill="#4f8a3d"/>
  <circle cx="32" cy="15.2" r="5.8" fill="#98d273"/>
  <path d="M18 53.5c9.2 2.6 18.8 2.6 28 0" stroke="#d6ddc3" stroke-width="2.6" stroke-linecap="round"/>
</svg>
