<svg xmlns="http://www.w3.org/2000/svg" viewBox="0 0 64 64" role="img" aria-labelledby="title desc">
  <title id="title">Carrot theme icon</title>
  <desc id="desc">A simple carrot icon for the orange light theme.</desc>
  <path d="M24.5 21.8c7.2 9.1 12.5 19.5 15.2 31.1.8 3.2-2.2 5.3-4.8 3.4C24.6 49 16.4 40.5 10.2 30.1c-1-1.7-.3-3.8 1.5-4.7l9.1-4.7c1.3-.7 2.8-.2 3.7 1.1z" fill="#f47b2c" stroke="#b95b24" stroke-width="3" stroke-linejoin="round"/>
  <path d="M19.4 27.7l8.3-4.2M23.5 35.4l8.4-3.8M28.6 42.9l6.5-2.9" stroke="#ffd2a8" stroke-width="2.2" stroke-linecap="round"/>
  <path d="M25.6 20.3c3.8-8 9.2-11.9 16.6-12.5-.7 6.7-4.7 11.1-12.3 13.3" fill="#3fa766" stroke="#2f8b57" stroke-width="2.6" stroke-linejoin="round"/>
  <path d="M26.2 20c.4-6.5 3.4-11.7 9.1-15.7 1.5 6.8-.2 11.9-5.2 15.3" fill="#70bf71" stroke="#2f8b57" stroke-width="2.6" stroke-linejoin="round"/>
</svg>
